<svg xmlns="http://www.w3.org/2000/svg"><symbol id="spacebubble" viewBox="0 0 256 256"><path d="M126.8.4l110.6 63.9v127.8L126.8 256 16.1 192.1V64.3L126.8.4z"/><path fill="#fff" d="M64.2 180l-4.8-6.9a2.3 2.3 0 0 1 .2-2.5L77 150h-8.6a2 2 0 0 1-2.1-2.1v-15.1a2.1 2.1 0 0 1 2.1-2.1h12.2a57.1 57.1 0 0 1-2.3-15.9A49.8 49.8 0 0 1 128 65.2c27.1 0 49.6 22.5 49.6 49.6a50.7 50.7 0 0 1-2.4 15.9h12.2a2 2 0 0 1 2.1 2.1v15.1a1.9 1.9 0 0 1-2.1 2.1h-10.7l17.2 20.6a2.1 2.1 0 0 1 0 2.5l-4.8 6.9a2.2 2.2 0 0 1-2.7.7l-10.1-5.3H77l-10.1 5.3a2.2 2.2 0 0 1-2.7-.7zm31.9-30H82.3l-18.5 21.9 2.9 4.2 35.5-18.7zm-25.6-15.1v10.9h114.8v-10.9zm14.5-4.2h85.8a50 50 0 0 0 2.6-15.9 45.5 45.5 0 0 0-90.9 0c0 5.4.4 11.1 2.5 15.9zm20.1 30l-19.9 10.5h28.5zm-3.5-10.7l17.6 21.2h15.1l17.6-21.2zm46.8 10.7l-8.6 10.5h28.5zm22.9-10.7h-13.9l-6.3 7.4 35.7 18.7 2.9-4z"/></symbol><symbol id="mecha-stilts" viewBox="0 0 256 256"><path d="M127.6-1.6l111.6 64.4v128.8L127.6 256 16.1 191.6V62.8L127.6-1.6z"/><path fill="#fff" d="M66.5 174.8a2 2 0 0 1-2.1-2.1v-25.6H36.5a2.4 2.4 0 0 1-2.2-2.1 2.3 2.3 0 0 1 2.2-2.1h15.8v-13.8a2 2 0 0 1 2.1-2.1h8.3a67 67 0 0 1 64.7-51.4c.2-.2.4-.2.9 0 31.3.2 57.3 22.2 64.3 51.4h8.2a1.9 1.9 0 0 1 2.1 2.1v13.8h15.9a2.2 2.2 0 0 1 2.1 2.1 2.3 2.3 0 0 1-2.1 2.1h-27.9v25.6a2.1 2.1 0 0 1-2.1 2.1zm-9.9-43.6v11.7h142.1v-11.7zM123.4 80c-27.1 1.7-49.7 21.4-56.3 47h22.7zm-54.8 67.1v23.5h56.9v-23.5zm56.9-62.8L95 127h30.5zm4.2-4.5V127h58.4a62.9 62.9 0 0 0-58.4-47.2zm0 67.3v23.5h9.6v-23.5zm13.8 0v23.5h43.1v-23.5z"/></symbol><symbol id="superdome" viewBox="0 0 256 256"><path d="M127.8.4l110.6 63.9v127.8L127.8 256 17.1 192.1V64.3L127.8.4z"/><path fill="#fff" d="M67.5 175.4a2.3 2.3 0 0 1-2.1-2.1 2.3 2.3 0 0 1 2.1-2.1H78V158H67.5a2 2 0 0 1-2.1-2.1v-41.3a2 2 0 0 1 2.1-2.1h13.9c1-29.8 23.3-46.2 50.4-46.2s49.3 16.4 50.3 46.2H196a2 2 0 0 1 2.1 2.1v41.3a2 2 0 0 1-2.1 2.1h-10.5v13.2H196a2.3 2.3 0 0 1 2.1 2.1 2.3 2.3 0 0 1-2.1 2.1zm2.1-58.7v37.1h124.3v-37.1zM82.2 158v13.2h13.5V158zm3.4-45.5h92.3c-1-27.1-21.6-42-46.1-42s-45.2 14.9-46.2 42zM99.9 158v13.2h20.9V158zm25.1 0v13.2h13.5V158zm56.9-14.3h-51.2a2.3 2.3 0 0 1-2.1-2.1 2.3 2.3 0 0 1 2.1-2.1h51.2a2.3 2.3 0 0 1 2.1 2.1 2.2 2.2 0 0 1-2.1 2.1zM142.7 158v13.2h21V158zm25.2 0v13.2h13.4V158z"/></symbol></svg>